<svg width="174" height="58" fill="none" xmlns="http://www.w3.org/2000/svg">
    <g clip-path="url(#a)">
        <path d="M160.144 0H13.864c-.533 0-1.06 0-1.592.003-.445.003-.886.011-1.336.018-.976.012-1.95.097-2.914.256a9.71 9.71 0 0 0-2.764.91 9.36 9.36 0 0 0-2.353 1.709 9.076 9.076 0 0 0-1.714 2.35 9.553 9.553 0 0 0-.908 2.76c-.162.96-.25 1.93-.261 2.903-.013.445-.015.89-.022 1.335V45.76c.007.45.009.886.022 1.337.012.972.099 1.943.26 2.902.16.962.467 1.893.91 2.762a9.005 9.005 0 0 0 1.713 2.34 9.122 9.122 0 0 0 2.353 1.71c.87.44 1.802.75 2.764.914a19.62 19.62 0 0 0 2.914.256c.45.01.891.016 1.336.016.532.003 1.059.003 1.592.003h146.28c.522 0 1.053 0 1.576-.003.443 0 .897-.006 1.34-.016a19.369 19.369 0 0 0 2.909-.256 9.908 9.908 0 0 0 2.774-.915 9.117 9.117 0 0 0 2.352-1.709 9.28 9.28 0 0 0 1.718-2.34c.439-.87.743-1.8.9-2.762.162-.96.252-1.93.27-2.902.006-.45.006-.887.006-1.337.011-.527.011-1.05.011-1.586V13.827c0-.53 0-1.057-.011-1.583 0-.444 0-.89-.006-1.335a19.618 19.618 0 0 0-.27-2.903 9.565 9.565 0 0 0-.9-2.76 9.391 9.391 0 0 0-4.07-4.06 9.852 9.852 0 0 0-2.774-.909 19.032 19.032 0 0 0-2.909-.256c-.443-.007-.897-.016-1.34-.018C161.197 0 160.666 0 160.144 0z" fill="#A6A6A6"/>
        <path d="M12.28 56.731c-.444 0-.876-.006-1.316-.016-.91-.011-1.819-.09-2.717-.236a8.572 8.572 0 0 1-2.41-.794 7.86 7.86 0 0 1-2.03-1.474 7.715 7.715 0 0 1-1.485-2.025 8.28 8.28 0 0 1-.79-2.403c-.149-.9-.23-1.808-.241-2.72-.01-.305-.022-1.323-.022-1.323V12.244s.013-1.002.022-1.297c.01-.91.091-1.817.24-2.714a8.33 8.33 0 0 1 .79-2.41c.38-.751.878-1.436 1.477-2.028a8.091 8.091 0 0 1 2.039-1.482 8.484 8.484 0 0 1 2.404-.789 18.35 18.35 0 0 1 2.727-.238l1.312-.017h149.433l1.328.018c.905.01 1.808.09 2.702.236.845.143 1.664.41 2.429.794a8.125 8.125 0 0 1 3.512 3.509c.379.753.641 1.56.778 2.39.151.906.236 1.82.253 2.737.004.411.004.852.004 1.291.012.544.012 1.061.012 1.583v30.347c0 .527 0 1.04-.012 1.559 0 .471 0 .903-.006 1.348-.017.9-.1 1.799-.248 2.687a8.334 8.334 0 0 1-.785 2.422 7.969 7.969 0 0 1-1.477 2.01c-.594.6-1.281 1.1-2.035 1.482a8.538 8.538 0 0 1-2.425.797 18.29 18.29 0 0 1-2.718.236c-.426.01-.872.016-1.305.016l-1.576.003-147.865-.003z" fill="#000"/>
        <path d="M36.016 29.435a7.16 7.16 0 0 1 .937-3.45 7.185 7.185 0 0 1 2.49-2.57 7.382 7.382 0 0 0-5.803-3.129c-2.443-.255-4.81 1.457-6.054 1.457-1.269 0-3.184-1.431-5.247-1.389a7.744 7.744 0 0 0-3.775 1.123 7.716 7.716 0 0 0-2.73 2.832c-2.811 4.856-.714 11.991 1.98 15.916 1.348 1.921 2.923 4.068 4.984 3.992 2.017-.083 2.77-1.282 5.205-1.282 2.412 0 3.118 1.282 5.221 1.234 2.164-.035 3.528-1.93 4.829-3.87a15.877 15.877 0 0 0 2.207-4.485 6.95 6.95 0 0 1-3.085-2.552 6.92 6.92 0 0 1-1.16-3.827zM32.044 17.706a7.052 7.052 0 0 0 1.62-5.061A7.215 7.215 0 0 0 29 15.05a6.72 6.72 0 0 0-1.663 4.874 5.974 5.974 0 0 0 4.707-2.219zM61.51 39.353h-6.882l-1.653 4.866H50.06l6.519-18.006h3.029l6.519 18.006h-2.965l-1.652-4.866zm-6.17-2.246h5.456l-2.69-7.899h-.075l-2.69 7.899zM80.206 37.656c0 4.08-2.19 6.7-5.494 6.7a4.473 4.473 0 0 1-4.142-2.296h-.063v6.502h-2.702v-17.47h2.616v2.183h.05a4.68 4.68 0 0 1 4.192-2.32c3.34-.001 5.543 2.633 5.543 6.7zm-2.778 0c0-2.658-1.377-4.405-3.479-4.405-2.064 0-3.453 1.784-3.453 4.405 0 2.645 1.389 4.416 3.453 4.416 2.102 0 3.48-1.734 3.48-4.416zM94.695 37.656c0 4.08-2.19 6.7-5.493 6.7a4.473 4.473 0 0 1-4.143-2.296h-.062v6.502h-2.702v-17.47h2.615v2.183h.05a4.68 4.68 0 0 1 4.192-2.32c3.341-.001 5.543 2.633 5.543 6.7zm-2.777 0c0-2.658-1.377-4.405-3.479-4.405-2.065 0-3.453 1.784-3.453 4.405 0 2.645 1.388 4.416 3.453 4.416 2.102 0 3.479-1.734 3.479-4.416zM104.272 39.203c.2 1.785 1.94 2.957 4.317 2.957 2.277 0 3.916-1.172 3.916-2.782 0-1.398-.988-2.234-3.328-2.808l-2.341-.562c-3.315-.799-4.855-2.345-4.855-4.854 0-3.107 2.716-5.24 6.571-5.24 3.815 0 6.431 2.133 6.519 5.24h-2.728c-.163-1.797-1.653-2.882-3.83-2.882-2.176 0-3.666 1.098-3.666 2.695 0 1.273.951 2.022 3.279 2.595l1.989.488c3.705.873 5.244 2.357 5.244 4.99 0 3.37-2.691 5.48-6.971 5.48-4.004 0-6.708-2.06-6.882-5.318h2.766zM121.191 27.986v3.107h2.504v2.134h-2.504v7.237c0 1.124.501 1.648 1.602 1.648a8.5 8.5 0 0 0 .889-.062v2.12a7.453 7.453 0 0 1-1.501.125c-2.665 0-3.705-.998-3.705-3.544v-7.524h-1.914v-2.134h1.914v-3.107h2.715zM125.145 37.657c0-4.13 2.439-6.726 6.243-6.726 3.817 0 6.245 2.596 6.245 6.726 0 4.142-2.415 6.726-6.245 6.726-3.828 0-6.243-2.584-6.243-6.726zm9.735 0c0-2.833-1.302-4.505-3.492-4.505-2.189 0-3.49 1.684-3.49 4.505 0 2.845 1.301 4.505 3.49 4.505 2.19 0 3.492-1.66 3.492-4.505zM139.861 31.091h2.577v2.234h.063a3.127 3.127 0 0 1 1.161-1.746 3.148 3.148 0 0 1 2.006-.625c.311-.001.622.032.925.1v2.52a3.79 3.79 0 0 0-1.214-.162 2.73 2.73 0 0 0-2.104.864 2.711 2.711 0 0 0-.712 2.156v7.787h-2.702V31.09zM159.052 40.365c-.363 2.383-2.691 4.018-5.668 4.018-3.83 0-6.207-2.558-6.207-6.664 0-4.117 2.39-6.788 6.093-6.788 3.642 0 5.933 2.495 5.933 6.476v.923h-9.298v.163a3.412 3.412 0 0 0 2.121 3.467c.45.184.934.269 1.42.251a2.982 2.982 0 0 0 3.04-1.846h2.566zm-9.134-3.919h6.581a3.157 3.157 0 0 0-3.229-3.331 3.338 3.338 0 0 0-3.099 2.052c-.169.406-.255.84-.253 1.28zM55.002 12.66a3.848 3.848 0 0 1 3.062 1.186 3.824 3.824 0 0 1 1.02 3.113c0 2.764-1.498 4.353-4.082 4.353h-3.134V12.66h3.134zm-1.786 7.428h1.636a2.734 2.734 0 0 0 2.173-.877 2.717 2.717 0 0 0 .688-2.234 2.72 2.72 0 0 0-.7-2.22 2.736 2.736 0 0 0-2.161-.874h-1.636v6.205zM60.607 18.046a3.084 3.084 0 0 1 .792-2.375 3.102 3.102 0 0 1 3.55-.749 3.103 3.103 0 0 1 1.689 1.853c.136.409.185.842.144 1.27a3.084 3.084 0 0 1-.79 2.38 3.102 3.102 0 0 1-2.298 1.014 3.11 3.11 0 0 1-2.297-1.015 3.09 3.09 0 0 1-.79-2.378zm4.846 0c0-1.416-.637-2.243-1.756-2.243-1.123 0-1.755.827-1.755 2.243 0 1.426.632 2.248 1.755 2.248 1.119 0 1.756-.827 1.756-2.248zM74.991 21.312h-1.34l-1.353-4.809h-.103l-1.347 4.809H69.52l-1.805-6.53h1.31l1.174 4.983h.096l1.346-4.982h1.24l1.346 4.982h.102l1.168-4.982h1.292l-1.798 6.529zM78.307 14.782h1.244v1.038h.096a1.957 1.957 0 0 1 1.954-1.164 2.134 2.134 0 0 1 2.194 1.488c.094.304.12.626.073.94v4.227h-1.293v-3.903c0-1.049-.457-1.57-1.413-1.57a1.508 1.508 0 0 0-1.163.468 1.497 1.497 0 0 0-.4 1.186v3.82h-1.292v-6.53zM85.927 12.234h1.292v9.078h-1.292v-9.078zM89.015 18.043a3.084 3.084 0 0 1 .793-2.375 3.102 3.102 0 0 1 3.55-.748 3.102 3.102 0 0 1 1.689 1.852c.136.41.186.842.144 1.271a3.086 3.086 0 0 1-.79 2.38 3.102 3.102 0 0 1-2.298 1.014 3.11 3.11 0 0 1-2.297-1.015 3.092 3.092 0 0 1-.79-2.379zm4.847 0c0-1.415-.638-2.243-1.757-2.243-1.123 0-1.755.828-1.755 2.243 0 1.427.632 2.248 1.755 2.248 1.119 0 1.757-.827 1.757-2.248zM96.552 19.466c0-1.175.877-1.852 2.435-1.949l1.774-.102v-.563c0-.69-.458-1.08-1.34-1.08-.722 0-1.222.265-1.366.726h-1.25c.132-1.121 1.19-1.84 2.675-1.84 1.641 0 2.567.815 2.567 2.194v4.461h-1.244v-.918h-.102a2.204 2.204 0 0 1-1.967 1.026 1.983 1.983 0 0 1-2.01-1.155 1.966 1.966 0 0 1-.172-.8zm4.209-.557v-.546l-1.6.102c-.901.06-1.31.366-1.31.941 0 .588.511.93 1.214.93a1.546 1.546 0 0 0 1.696-1.427zM103.745 18.044c0-2.063 1.064-3.37 2.718-3.37a2.162 2.162 0 0 1 2.008 1.146h.097v-3.586h1.292v9.078h-1.238V20.28h-.103a2.271 2.271 0 0 1-2.056 1.14c-1.665 0-2.718-1.307-2.718-3.376zm1.335 0c0 1.385.655 2.219 1.75 2.219 1.089 0 1.762-.846 1.762-2.213 0-1.36-.68-2.218-1.762-2.218-1.088 0-1.75.839-1.75 2.212zM115.206 18.046a3.093 3.093 0 0 1 3.088-3.388 3.109 3.109 0 0 1 2.295 1.013 3.081 3.081 0 0 1 .793 2.375 3.086 3.086 0 0 1-.791 2.378 3.104 3.104 0 0 1-5.385-2.379zm4.847 0c0-1.416-.638-2.243-1.757-2.243-1.123 0-1.755.827-1.755 2.243 0 1.426.632 2.248 1.755 2.248 1.119 0 1.757-.827 1.757-2.248zM123.115 14.782h1.244v1.038h.097a1.959 1.959 0 0 1 1.954-1.164 2.136 2.136 0 0 1 1.718.671 2.121 2.121 0 0 1 .548 1.758v4.226h-1.292v-3.903c0-1.049-.457-1.57-1.413-1.57a1.509 1.509 0 0 0-1.163.468 1.502 1.502 0 0 0-.4 1.186v3.82h-1.293v-6.53zM135.978 13.157v1.655h1.418v1.086h-1.418v3.357c0 .684.282.984.926.984.164 0 .329-.01.492-.03v1.073a4.257 4.257 0 0 1-.703.066c-1.437 0-2.009-.504-2.009-1.763v-3.687h-1.039v-1.085h1.039v-1.656h1.294zM139.161 12.234h1.281v3.598h.102a2.014 2.014 0 0 1 1.997-1.17 2.162 2.162 0 0 1 2.174 1.5c.095.302.123.62.081.934v4.216h-1.294v-3.898c0-1.043-.487-1.57-1.4-1.57a1.531 1.531 0 0 0-1.648 1.655v3.813h-1.293v-9.078zM152.33 19.548a2.646 2.646 0 0 1-1.074 1.458 2.665 2.665 0 0 1-1.763.43 2.98 2.98 0 0 1-2.294-.986 2.959 2.959 0 0 1-.73-2.383 3.007 3.007 0 0 1 1.763-3.15 3.026 3.026 0 0 1 1.256-.261c1.821 0 2.921 1.24 2.921 3.291v.45h-4.624v.072a1.72 1.72 0 0 0 .457 1.32 1.725 1.725 0 0 0 1.287.55 1.57 1.57 0 0 0 1.558-.791h1.243zm-4.545-2.104h3.307a1.569 1.569 0 0 0-.969-1.571 1.583 1.583 0 0 0-.643-.12 1.68 1.68 0 0 0-1.572 1.04 1.667 1.667 0 0 0-.123.65z" fill="#fff"/>
    </g>
    <defs>
        <clipPath id="a">
            <path fill="#fff" d="M0 0h174v58H0z"/>
        </clipPath>
    </defs>
</svg>
