<svg width="195" height="58" fill="none" xmlns="http://www.w3.org/2000/svg">
    <path d="M187.505 57.856H7.35c-3.963 0-7.206-3.247-7.206-7.214V7.358C.144 3.391 3.387.144 7.35.144h180.155c3.964 0 7.207 3.247 7.207 7.214v43.284c0 3.967-3.243 7.214-7.207 7.214z" fill="#000"/>
    <path d="M187.505.144H7.35C3.387.144.144 3.391.144 7.358v43.284c0 3.967 3.243 7.214 7.206 7.214h180.155c3.964 0 7.207-3.247 7.207-7.214V7.358c0-3.967-3.243-7.214-7.207-7.214zm0 1.155c3.338 0 6.054 2.718 6.054 6.06v43.283c0 3.341-2.716 6.06-6.054 6.06H7.35c-3.337 0-6.053-2.719-6.053-6.06V7.358c0-3.34 2.716-6.06 6.053-6.06h180.155z" fill="#A6A6A6"/>
    <path d="M68.485 14.923c0 1.209-.357 2.172-1.073 2.89-.814.854-1.874 1.28-3.177 1.28-1.248 0-2.31-.432-3.182-1.299-.875-.866-1.31-1.94-1.31-3.222s.435-2.356 1.31-3.223c.872-.866 1.934-1.3 3.182-1.3.619 0 1.212.122 1.775.364s1.014.564 1.352.967l-.76.761c-.572-.684-1.36-1.027-2.367-1.027-.91 0-1.698.32-2.362.961-.664.642-.996 1.474-.996 2.497 0 1.024.332 1.855.996 2.497.664.64 1.451.96 2.362.96.965 0 1.77-.321 2.415-.966.418-.42.66-1.004.725-1.753h-3.14v-1.04h4.19c.04.226.06.443.06.653" fill="#fff"/>
    <path d="M68.485 14.923h-.144c0 1.181-.345 2.099-1.031 2.788h-.002v.002c-.788.824-1.8 1.235-3.073 1.236-1.215-.001-2.232-.416-3.08-1.257-.848-.843-1.267-1.871-1.269-3.12.002-1.25.42-2.277 1.268-3.12.85-.84 1.866-1.256 3.08-1.258.602 0 1.174.117 1.719.351.546.236.977.545 1.299.928l.11-.093-.102-.102-.76.762.102.101.111-.092c-.599-.719-1.44-1.081-2.478-1.079a3.43 3.43 0 0 0-2.462 1.002c-.693.667-1.042 1.546-1.04 2.6-.002 1.055.347 1.933 1.04 2.6a3.43 3.43 0 0 0 2.462 1.002c.997.002 1.848-.337 2.517-1.009.447-.448.7-1.07.767-1.843l.013-.156H64.38v-.752h4.046v-.144l-.142.025c.04.22.058.427.058.628h.288c0-.22-.02-.444-.062-.679l-.021-.118H64.09V15.454h3.284v-.144l-.144-.013c-.063.726-.294 1.273-.683 1.664-.62.618-1.38.923-2.313.924-.877 0-1.62-.303-2.262-.92-.635-.615-.95-1.4-.952-2.393.001-.993.317-1.778.952-2.393.642-.617 1.385-.92 2.262-.92.974.002 1.71.324 2.257.975l.101.12.871-.872.094-.094-.086-.1c-.354-.423-.825-.759-1.405-1.008a4.598 4.598 0 0 0-1.832-.374c-1.282-.002-2.387.45-3.284 1.341-.9.89-1.354 2.01-1.353 3.325-.001 1.314.453 2.434 1.354 3.325.896.892 2.002 1.342 3.283 1.341 1.334.001 2.44-.442 3.28-1.326l-.103-.1.102.103c.746-.747 1.117-1.756 1.115-2.992h-.144zM75.129 11.307H71.19v2.745h3.552v1.04H71.19v2.745h3.939V18.9H70.08v-8.656h5.049v1.063z" fill="#fff"/>
    <path d="M75.128 11.307v-.144h-4.082v3.033h3.552v.752h-3.552v3.033h3.938v.775h-4.76v-8.368h4.76v.92h.144v-.145.144h.144V10.1h-5.336v8.946h5.336V17.693h-3.938v-2.457h3.552V13.908h-3.551V11.45h3.938v-.144h-.145M79.814 18.9h-1.112v-7.593h-2.415v-1.063h5.942v1.063h-2.415V18.9z" fill="#fff"/>
    <path d="M79.814 18.9v-.144h-.967v-7.593H76.43v-.775h5.654v.775H79.67V18.9h.144v-.144.144h.145v-7.449h2.415V10.1h-6.23V11.451h2.414v7.594h1.401V18.9h-.145M86.53 18.9v-8.656h1.11V18.9h-1.11z" fill="#fff"/>
    <path d="M86.53 18.9h.143v-8.512h.823v8.368h-.967v.144h.144-.144v.145H87.784v-8.946H86.385v8.946h.144V18.9zM92.569 18.9h-1.112v-7.593h-2.415v-1.063h5.942v1.063h-2.415V18.9z" fill="#fff"/>
    <path d="M92.569 18.9v-.144H91.6v-7.593h-2.415v-.775h5.654v.775h-2.416V18.9h.145v-.144.144h.144v-7.449h2.415V10.1h-6.23V11.451h2.415v7.594h1.4V18.9h-.144M100.713 17.057c.64.649 1.423.973 2.349.973.926 0 1.71-.324 2.349-.973.641-.649.962-1.478.962-2.485s-.321-1.836-.962-2.485c-.639-.649-1.423-.973-2.349-.973-.926 0-1.709.324-2.349.973-.639.649-.96 1.478-.96 2.485s.321 1.836.96 2.485zm5.52.725c-.85.875-1.907 1.312-3.171 1.312-1.264 0-2.321-.437-3.17-1.312-.85-.875-1.273-1.945-1.273-3.21s.423-2.335 1.274-3.21c.848-.875 1.905-1.312 3.169-1.312 1.257 0 2.311.44 3.165 1.318.853.879 1.28 1.947 1.28 3.204 0 1.265-.426 2.335-1.274 3.21z" fill="#fff"/>
    <path d="m100.713 17.057-.103.101c.664.675 1.492 1.018 2.452 1.016.959.002 1.789-.341 2.451-1.016.669-.675 1.005-1.548 1.004-2.586.001-1.037-.335-1.911-1.004-2.586-.662-.675-1.492-1.018-2.451-1.016-.96-.002-1.788.341-2.452 1.016-.666.675-1.003 1.549-1.001 2.586-.002 1.038.335 1.911 1.001 2.586l.103-.101.102-.101c-.611-.623-.917-1.407-.918-2.384.001-.977.307-1.76.918-2.383.617-.623 1.354-.929 2.247-.93.892.001 1.631.307 2.246.93.613.622.919 1.406.92 2.383-.001.977-.307 1.76-.92 2.384-.615.622-1.354.928-2.246.93-.893-.002-1.63-.308-2.247-.93l-.102.101zm5.52.725-.103-.1c-.827.847-1.837 1.266-3.068 1.268-1.231-.002-2.242-.421-3.066-1.269l-.004-.004.004.004c-.825-.85-1.232-1.876-1.233-3.109 0-1.233.408-2.259 1.233-3.11.824-.847 1.835-1.266 3.066-1.268 1.223.002 2.231.423 3.062 1.275.828.854 1.237 1.878 1.239 3.103-.002 1.233-.41 2.259-1.233 3.11l.103.1.103.1c.874-.898 1.316-2.013 1.315-3.31.001-1.29-.443-2.402-1.32-3.304-.878-.906-1.979-1.364-3.269-1.362-1.297-.002-2.4.454-3.273 1.356-.876.898-1.316 2.013-1.315 3.31 0 1.297.44 2.412 1.315 3.31l.004.005-.004-.005c.873.902 1.976 1.357 3.273 1.356 1.297.001 2.4-.454 3.274-1.356l-.103-.1M109.066 18.9v-8.656h1.353l4.202 6.734h.048l-.048-1.668v-5.066h1.112V18.9h-1.159l-4.397-7.06h-.048l.048 1.669V18.9h-1.111z" fill="#fff"/>
    <path d="M109.066 18.9h.145v-8.512h1.128l4.202 6.734h.276l-.051-1.814v-4.92h.823v8.368h-.935l-4.397-7.06h-.276l.052 1.815v5.245h-.967v.144h.145-.145v.145h1.255v-5.539l-.048-1.67-.144.004v.144h.048v-.144l-.123.076 4.44 7.129H115.878v-8.946H114.477v5.213l.048 1.67.144-.004v-.144h-.048v.144l.123-.077-4.245-6.802h-1.577v8.946h.144V18.9zM154.265 43.428h2.689V25.39h-2.689v18.037zm24.223-11.54-3.083 7.82h-.092l-3.2-7.82h-2.897l4.798 10.93-2.735 6.08h2.806l7.393-17.01h-2.99zm-15.252 9.491c-.882 0-2.11-.44-2.11-1.532 0-1.392 1.531-1.925 2.851-1.925 1.183 0 1.738.255 2.457.603-.208 1.67-1.645 2.854-3.198 2.854zm.325-9.885c-1.947 0-3.964.859-4.798 2.761l2.386.998c.511-.998 1.46-1.323 2.458-1.323 1.391 0 2.804.836 2.827 2.321v.185c-.487-.278-1.529-.696-2.804-.696-2.573 0-5.193 1.416-5.193 4.061 0 2.413 2.11 3.968 4.474 3.968 1.808 0 2.804-.812 3.431-1.763h.092v1.392h2.596v-6.915c0-3.202-2.387-4.99-5.469-4.99zm-16.621 2.59h-3.825v-6.183h3.825c2.011 0 3.152 1.667 3.152 3.092 0 1.397-1.141 3.091-3.152 3.091zm-.069-8.693h-6.444v18.037h2.688v-6.834h3.756c2.981 0 5.911-2.16 5.911-5.601s-2.93-5.602-5.911-5.602zm-35.139 15.992c-1.858 0-3.413-1.558-3.413-3.697 0-2.16 1.555-3.742 3.413-3.742 1.834 0 3.274 1.581 3.274 3.742 0 2.14-1.44 3.697-3.274 3.697zm3.088-8.485h-.093c-.603-.72-1.765-1.37-3.227-1.37-3.065 0-5.875 2.695-5.875 6.159 0 3.44 2.81 6.113 5.875 6.113 1.462 0 2.624-.651 3.227-1.395h.093v.883c0 2.349-1.254 3.604-3.274 3.604-1.648 0-2.67-1.186-3.088-2.186l-2.345.977c.673 1.627 2.461 3.626 5.433 3.626 3.158 0 5.828-1.86 5.828-6.392V31.899h-2.554v1zm4.412 10.53h2.693V25.39h-2.693v18.037zm6.664-5.95c-.07-2.372 1.834-3.58 3.204-3.58 1.069 0 1.974.534 2.275 1.302l-5.479 2.277zm8.358-2.046c-.51-1.372-2.066-3.905-5.247-3.905-3.158 0-5.782 2.487-5.782 6.136 0 3.44 2.601 6.137 6.084 6.137 2.81 0 4.435-1.72 5.108-2.72l-2.089-1.395c-.697 1.023-1.649 1.697-3.019 1.697s-2.345-.627-2.972-1.859l8.196-3.394-.279-.697zm-65.3-2.022v2.603h6.223c-.186 1.464-.673 2.534-1.417 3.277-.905.907-2.321 1.907-4.806 1.907-3.83 0-6.826-3.092-6.826-6.927 0-3.835 2.995-6.927 6.826-6.927 2.067 0 3.576.814 4.69 1.86l1.835-1.836c-1.556-1.488-3.623-2.627-6.525-2.627-5.247 0-9.659 4.277-9.659 9.53 0 5.253 4.412 9.53 9.66 9.53 2.832 0 4.968-.93 6.64-2.673 1.718-1.72 2.252-4.138 2.252-6.09 0-.605-.046-1.162-.14-1.627h-8.753zm15.968 7.973c-1.858 0-3.46-1.535-3.46-3.72 0-2.208 1.602-3.719 3.46-3.719 1.857 0 3.46 1.511 3.46 3.72 0 2.184-1.603 3.718-3.46 3.718zm0-9.856c-3.39 0-6.154 2.58-6.154 6.136 0 3.534 2.763 6.137 6.154 6.137 3.39 0 6.153-2.603 6.153-6.137 0-3.556-2.764-6.136-6.153-6.136zm13.422 9.855c-1.857 0-3.46-1.534-3.46-3.719 0-2.208 1.603-3.719 3.46-3.719 1.858 0 3.46 1.511 3.46 3.72 0 2.184-1.602 3.718-3.46 3.718zm0-9.855c-3.39 0-6.152 2.58-6.152 6.136 0 3.534 2.762 6.137 6.152 6.137s6.153-2.603 6.153-6.137c0-3.556-2.763-6.136-6.153-6.136z" fill="#fff"/>
    <path d="m15.291 46.875-.107-.102c-.42-.445-.667-1.134-.667-2.028v.21V13.04v.218c0-.967.289-1.695.773-2.132L33.145 29 15.291 46.875zm-.774-33.837zm.006-.236v-.004.004zm0-.01v-.002.002z" fill="url(#a)"/>
    <path d="m39.098 35.173.135-.077 7.052-4.011c.673-.383 1.12-.847 1.344-1.338-.223.491-.671.956-1.344 1.338l-7.052 4.011-.135.077zm.001-.212-5.953-5.96 5.953-5.96 7.186 4.088c.913.519 1.425 1.188 1.51 1.871v.003c-.085.682-.597 1.352-1.51 1.87L39.1 34.962" fill="url(#b)"/>
    <path d="M16.564 47.556c-.499 0-.934-.162-1.274-.469h.001c.34.306.775.469 1.274.469a2.67 2.67 0 0 0-.001 0zm0-.212c-.498.001-.934-.162-1.273-.468L33.146 29l5.953 5.96-20.92 11.9c-.579.328-1.127.483-1.614.483zm-1.278-.26a1.93 1.93 0 0 1-.093-.092l.093.091z" fill="url(#c)"/>
    <path d="M33.146 29.001 15.29 11.126c.339-.306.774-.469 1.272-.469.489 0 1.037.156 1.617.486L39.1 23.041 33.146 29zm6.087-6.094L18.18 10.932c-.58-.33-1.128-.486-1.617-.486h-.006.008c.488 0 1.036.156 1.615.485l21.054 11.976z" fill="url(#d)"/>
    <path d="M16.697 47.553c.453-.026.955-.183 1.482-.482l20.918-11.898L18.18 47.07c-.527.3-1.029.456-1.482.482zm-1.406-.466-.005-.004.005.004zm-.098-.095-.009-.009.01.01z" fill="#000"/>
    <path d="m39.097 35.173.136-.077-.136.077z" fill="url(#e)"/>
    <path d="M16.565 47.556c-.499 0-.934-.163-1.274-.47v.001a.045.045 0 0 0-.005-.004l-.093-.09-.009-.01.107-.107c.34.306.775.47 1.274.468.487 0 1.035-.155 1.614-.483l20.92-11.9.134.135-.136.077L18.18 47.07c-.527.3-1.029.456-1.482.482a2.674 2.674 0 0 1-.132.003" fill="url(#f)"/>
    <path d="M15.184 46.984c-.42-.445-.667-1.134-.667-2.028 0 .894.248 1.583.667 2.027" fill="#000"/>
    <path d="M15.184 46.983c-.42-.444-.667-1.133-.667-2.027v-.21c0 .893.248 1.583.667 2.027l.107.102-.107.108" fill="url(#g)"/>
    <path d="m15.184 46.983.107-.107-.107.107" fill="url(#h)"/>
    <path d="M47.63 29.747a1.793 1.793 0 0 1 0 0z" fill="#000"/>
    <path d="m39.233 35.096-.134-.135 7.186-4.087c.913-.52 1.425-1.189 1.51-1.871 0 .25-.055.5-.166.744-.224.49-.672.955-1.344 1.337l-7.052 4.012z" fill="url(#i)"/>
    <path d="M47.796 29.001c0-.755-.505-1.51-1.51-2.082l-7.053-4.012 7.052 4.01c1.007.573 1.512 1.33 1.51 2.084z" fill="#404040"/>
    <path d="M47.796 29c-.086-.683-.598-1.352-1.51-1.871l-7.187-4.087.134-.135 7.052 4.012c1.006.572 1.51 1.327 1.51 2.081z" fill="url(#j)"/>
    <path d="M14.517 13.04v-.002.002zm.006-.235v-.003.003zm0-.007v-.007.007zm0-.008c.084-1.482.89-2.338 2.028-2.344a1.853 1.853 0 0 0-1.26.47v-.001l-.004.004c-.036.032-.07.066-.103.1-.378.401-.617 1.002-.66 1.77z" fill="#404040"/>
    <path d="M14.517 13.258v-.22c0-.08.002-.157.006-.233V12.79c.044-.77.283-1.37.661-1.77l.106.106c-.484.437-.773 1.165-.773 2.133zm.77-2.339.004-.004-.004.004z" fill="url(#k)"/>
    <path d="m39.099 23.042-20.92-11.9c-.58-.328-1.128-.485-1.617-.485-.498 0-.933.163-1.273.469l-.105-.106a1.95 1.95 0 0 1 .103-.101l.004-.003a1.852 1.852 0 0 1 1.26-.47h.011c.488 0 1.037.157 1.617.486l21.054 11.975-.134.135z" fill="url(#l)"/>
    <defs>
        <linearGradient id="a" x1="31.563" y1="12.71" x2="7.349" y2="36.898" gradientUnits="userSpaceOnUse">
            <stop stop-color="#00A0FF"/>
            <stop offset=".007" stop-color="#00A1FF"/>
            <stop offset=".26" stop-color="#00BEFF"/>
            <stop offset=".512" stop-color="#00D2FF"/>
            <stop offset=".76" stop-color="#00DFFF"/>
            <stop offset="1" stop-color="#00E3FF"/>
        </linearGradient>
        <linearGradient id="b" x1="48.908" y1="29.002" x2="14.034" y2="29.002" gradientUnits="userSpaceOnUse">
            <stop stop-color="#FFE000"/>
            <stop offset=".409" stop-color="#FFBD00"/>
            <stop offset=".775" stop-color="orange"/>
            <stop offset="1" stop-color="#FF9C00"/>
        </linearGradient>
        <linearGradient id="c" x1="35.926" y1="32.313" x2="3.09" y2="65.113" gradientUnits="userSpaceOnUse">
            <stop stop-color="#FF3A44"/>
            <stop offset="1" stop-color="#C31162"/>
        </linearGradient>
        <linearGradient id="d" x1="10.661" y1=".398" x2="25.324" y2="15.045" gradientUnits="userSpaceOnUse">
            <stop stop-color="#32A071"/>
            <stop offset=".069" stop-color="#2DA771"/>
            <stop offset=".476" stop-color="#15CF74"/>
            <stop offset=".801" stop-color="#06E775"/>
            <stop offset="1" stop-color="#00F076"/>
        </linearGradient>
        <linearGradient id="e" x1="48.907" y1="29.002" x2="14.034" y2="29.002" gradientUnits="userSpaceOnUse">
            <stop stop-color="#CCB300"/>
            <stop offset=".409" stop-color="#CC9700"/>
            <stop offset=".775" stop-color="#CC8400"/>
            <stop offset="1" stop-color="#CC7D00"/>
        </linearGradient>
        <linearGradient id="f" x1="35.926" y1="32.313" x2="3.09" y2="65.113" gradientUnits="userSpaceOnUse">
            <stop stop-color="#CC2E36"/>
            <stop offset="1" stop-color="#9C0E4E"/>
        </linearGradient>
        <linearGradient id="g" x1="31.563" y1="12.711" x2="7.349" y2="36.898" gradientUnits="userSpaceOnUse">
            <stop stop-color="#008DE0"/>
            <stop offset=".007" stop-color="#008DE0"/>
            <stop offset=".26" stop-color="#00A7E0"/>
            <stop offset=".512" stop-color="#00B8E0"/>
            <stop offset=".76" stop-color="#00C4E0"/>
            <stop offset="1" stop-color="#00C7E0"/>
        </linearGradient>
        <linearGradient id="h" x1="35.926" y1="32.313" x2="3.091" y2="65.114" gradientUnits="userSpaceOnUse">
            <stop stop-color="#E0333C"/>
            <stop offset="1" stop-color="#AB0F56"/>
        </linearGradient>
        <linearGradient id="i" x1="48.907" y1="29.002" x2="14.034" y2="29.002" gradientUnits="userSpaceOnUse">
            <stop stop-color="#E0C500"/>
            <stop offset=".409" stop-color="#E0A600"/>
            <stop offset=".775" stop-color="#E09100"/>
            <stop offset="1" stop-color="#E08900"/>
        </linearGradient>
        <linearGradient id="j" x1="48.908" y1="29.002" x2="14.034" y2="29.002" gradientUnits="userSpaceOnUse">
            <stop stop-color="#FFE840"/>
            <stop offset=".409" stop-color="#FFCE40"/>
            <stop offset=".775" stop-color="#FFBC40"/>
            <stop offset="1" stop-color="#FFB540"/>
        </linearGradient>
        <linearGradient id="k" x1="31.563" y1="12.711" x2="7.349" y2="36.898" gradientUnits="userSpaceOnUse">
            <stop stop-color="#40B8FF"/>
            <stop offset=".007" stop-color="#40B9FF"/>
            <stop offset=".26" stop-color="#40CEFF"/>
            <stop offset=".512" stop-color="#40DDFF"/>
            <stop offset=".76" stop-color="#40E7FF"/>
            <stop offset="1" stop-color="#40EAFF"/>
        </linearGradient>
        <linearGradient id="l" x1="10.661" y1=".399" x2="25.323" y2="15.045" gradientUnits="userSpaceOnUse">
            <stop stop-color="#65B895"/>
            <stop offset=".069" stop-color="#62BD95"/>
            <stop offset=".476" stop-color="#50DB97"/>
            <stop offset=".801" stop-color="#44ED98"/>
            <stop offset="1" stop-color="#40F498"/>
        </linearGradient>
    </defs>
</svg>
