<svg xmlns="http://www.w3.org/2000/svg" width="39" height="43"><defs><linearGradient id="a" x1="14.3%" x2="90.4%" y1="50%" y2="53.5%"><stop offset="0%" stop-color="#7543E3"/><stop offset="100%" stop-color="#582ACB"/></linearGradient></defs><path d="M19.3 0c2.8 0 5.2 2.9 6.8 7.5l-2 .6c-1.3-3.8-3-6.1-4.8-6.1-1.9 0-4 2.9-5.3 7.6a39.3 39.3 0 015.3 2.1h.3c.8-.5 1.6-.8 2.4-1.1l.3-.1c2.4-1 4.7-1.6 6.8-2 4.5-.7 7.7 0 9 2.3 1.3 2.1.3 5.3-2.6 8.8l-.5.6-1.4-1.4c2.6-3 3.6-5.6 2.8-7-.8-1.4-3.4-1.9-7-1.3L27 11a34.9 34.9 0 01.9 5.6 47.7 47.7 0 017.6 6.8c3 3.5 3.9 6.7 2.6 8.9-1 1.6-3 2.4-5.9 2.4a19.2 19.2 0 01-4-.4l.5-2 .7.2c3.6.6 6.2.1 7-1.2 1-1.7-.6-4.9-4-8.4l-1.2 1h-.1l-3.2 2.5-.2 1.8C26.6 37 23.4 43 19.3 43c-2.7 0-5.1-2.9-6.7-7.5l2-.6c1.2 3.9 3 6.1 4.7 6.1 2 0 4-2.9 5.3-7.7a35.9 35.9 0 01-5.3-2l-2.1 1h-.3c-4 1.6-7.6 2.4-10.4 2.4-2.9 0-5-.8-6-2.4-1.3-2.4 0-6 3.3-9.7l1.4 1.5c-2.7 3-3.8 5.7-3 7.2 1 1.6 4.6 2 9.4.7a39 39 0 01-.8-5.6L9 25c-5.6-4.3-9-8.8-9-12.2 0-.8.2-1.5.6-2.2 1.3-2.3 5-3 9.9-2a31 31 0 00-.5 2c-4-.8-6.9-.4-7.7 1-1 1.7.5 4.9 4 8.4a36.4 36.4 0 014.5-3.5l.2-1.8C12 6 15.3 0 19.3 0zm6.4 27.8l-1.5 1-.5.2-1.8 1-.2.1a44.6 44.6 0 003.4 1.3 40 40 0 00.6-3.6zm-12.7 0a45.5 45.5 0 00.6 3.6 36.8 36.8 0 003.4-1.3 58 58 0 01-2-1l-.2-.1a61 61 0 01-1.8-1.2zM19.3 14a54.3 54.3 0 00-6.6 3.8 54.3 54.3 0 000 7.6 48 48 0 006.6 3.8l.2-.1a52 52 0 006.4-3.7 54.5 54.5 0 000-7.6 51.5 51.5 0 00-6.6-3.8zm0 5a2.6 2.6 0 11-2.6 2.6c0-1.4 1.2-2.6 2.6-2.6zm8.7.3v4.6l1.5-1.2.2-.1 1.2-1a39.9 39.9 0 00-2.9-2.3zm-17.4 0a43.4 43.4 0 00-2.8 2.3 40.4 40.4 0 002.8 2.3v-2.3-.6-1.7zm14.5-7.6a31.9 31.9 0 00-3.3 1.2h-.1l2 1.2h.1l1.9 1.2a42.7 42.7 0 00-.6-3.6zm-11.5 0a39.9 39.9 0 00-.6 3.6l1.9-1.2 2-1.1a44.6 44.6 0 00-3.3-1.3z" fill="url(#a)" fill-rule="evenodd"/></svg>
