<?xml version="1.0" standalone="no"?>
<!DOCTYPE svg PUBLIC "-//W3C//DTD SVG 20010904//EN"
 "http://www.w3.org/TR/2001/REC-SVG-20010904/DTD/svg10.dtd">
<svg version="1.0" xmlns="http://www.w3.org/2000/svg"
 width="688.000000pt" height="688.000000pt" viewBox="0 0 688.000000 688.000000"
 preserveAspectRatio="xMidYMid meet">
<metadata>
Created by potrace 1.14, written by Peter Selinger 2001-2017
</metadata>
<g transform="translate(0.000000,688.000000) scale(0.100000,-0.100000)"
fill="#000000" stroke="none">
<path d="M3245 6858 c-44 -11 -83 -26 -87 -32 -4 -6 -8 -7 -8 -3 0 7 -97 -40
-110 -53 -3 -3 -25 -18 -50 -34 -104 -67 -278 -264 -376 -426 -21 -36 -42 -67
-47 -68 -4 -2 -5 -7 -2 -12 3 -5 -1 -14 -8 -22 -11 -11 -110 -204 -112 -218 0
-3 -15 -40 -33 -83 -43 -102 -113 -297 -106 -297 2 0 -1 -10 -7 -22 -10 -19
-38 -113 -54 -181 -2 -10 -13 -51 -24 -91 -11 -40 -22 -83 -25 -97 -9 -47 -25
-124 -31 -149 -3 -14 -8 -36 -10 -50 -2 -14 -7 -38 -10 -55 -15 -80 -34 -195
-39 -235 -15 -122 -24 -186 -31 -232 -3 -18 -7 -60 -11 -93 -3 -33 -7 -76 -9
-95 -1 -19 -3 -43 -4 -52 -1 -10 -32 -38 -73 -65 -40 -26 -75 -50 -78 -53 -3
-4 -30 -24 -60 -44 -30 -21 -57 -41 -60 -45 -3 -3 -17 -14 -31 -23 -25 -16
-231 -179 -255 -202 -6 -6 -33 -30 -60 -53 -27 -23 -62 -53 -78 -67 l-29 -26
-46 48 c-319 333 -511 615 -603 884 -28 82 -32 106 -32 208 -1 107 1 119 27
172 62 125 186 199 402 239 105 20 560 15 594 -5 3 -2 31 -7 61 -10 65 -7 104
-14 147 -26 22 -5 35 -4 41 3 6 9 35 117 48 182 1 6 7 30 14 55 16 59 21 84
14 77 -3 -2 -29 2 -59 9 -30 8 -58 13 -62 12 -4 -1 -37 3 -73 10 -204 38 -582
48 -725 18 -11 -2 -40 -7 -65 -11 -186 -28 -392 -128 -504 -243 -38 -40 -126
-170 -126 -187 0 -2 -5 -16 -12 -32 -12 -31 -11 -28 -31 -100 -15 -52 -17
-240 -4 -308 14 -72 34 -146 47 -180 5 -11 15 -39 24 -63 35 -93 159 -327 195
-369 6 -7 11 -15 11 -18 0 -14 196 -271 294 -384 41 -47 418 -422 444 -441 11
-8 46 -38 78 -67 89 -79 198 -168 301 -247 39 -30 80 -62 90 -70 10 -8 56 -45
103 -81 47 -36 95 -74 107 -83 18 -15 23 -31 28 -97 3 -44 8 -98 10 -120 3
-22 8 -62 11 -90 11 -103 13 -122 24 -195 20 -132 46 -270 68 -368 10 -41 9
-42 -17 -48 -14 -3 -51 -13 -81 -20 -68 -18 -81 -21 -150 -35 -30 -5 -66 -13
-80 -15 -14 -3 -41 -7 -60 -10 -77 -10 -106 -14 -125 -18 -36 -7 -208 -19
-295 -20 -75 -1 -138 4 -260 19 -49 6 -129 23 -141 31 -5 3 -22 8 -37 10 -15
3 -37 12 -49 20 -12 8 -29 14 -38 14 -8 0 -15 5 -15 10 0 6 -6 10 -13 10 -22
0 -117 91 -138 132 -29 56 -31 71 -33 173 -3 153 69 354 196 548 21 32 38 61
38 63 0 13 153 210 238 307 l43 49 -28 31 c-30 34 -133 145 -171 185 l-24 25
-39 -44 c-102 -114 -276 -351 -330 -450 -13 -24 -26 -46 -29 -49 -3 -3 -30
-54 -59 -113 -52 -108 -116 -287 -127 -356 -3 -20 -8 -40 -11 -45 -14 -22 -12
-245 3 -316 16 -77 58 -177 90 -219 133 -168 350 -281 608 -317 21 -3 59 -9
84 -14 71 -13 435 -9 552 6 165 21 162 21 310 49 62 12 130 27 230 49 8 2 35
10 60 17 25 7 52 14 60 15 19 3 220 62 240 71 8 3 17 7 20 8 3 1 12 4 20 7 8
4 56 20 105 36 50 17 138 49 198 71 59 23 118 41 132 41 14 0 33 4 43 10 9 5
67 32 127 61 61 28 128 60 150 70 l41 19 187 -80 c103 -44 193 -80 200 -80 7
0 17 -4 23 -9 5 -5 106 -42 225 -81 l216 -72 -38 -121 c-94 -301 -160 -463
-272 -659 -33 -60 -64 -108 -69 -108 -4 0 -8 -6 -8 -13 0 -7 -11 -24 -25 -39
-14 -15 -25 -30 -25 -34 0 -4 -38 -44 -83 -89 -62 -61 -104 -92 -162 -121 -73
-36 -85 -39 -164 -39 -71 0 -95 4 -136 24 -27 14 -52 25 -55 25 -36 5 -201
171 -269 271 -98 144 -198 357 -271 578 -13 37 -28 67 -34 67 -17 0 -290 -83
-300 -91 -12 -10 69 -218 150 -386 83 -172 153 -287 274 -448 8 -10 58 -62
111 -115 103 -102 210 -174 314 -211 80 -28 87 -29 188 -36 88 -5 226 16 255
39 6 6 12 8 12 4 0 -11 154 76 211 120 114 87 200 184 304 339 81 121 209 358
198 368 -3 4 -1 7 5 7 7 0 12 7 12 15 0 8 4 23 9 33 40 76 136 344 176 492 27
97 75 292 78 317 3 17 7 36 10 40 3 5 8 27 11 49 4 22 9 51 12 64 10 46 11 52
38 214 3 16 8 50 12 75 3 25 8 57 10 71 3 14 6 41 9 60 2 19 6 60 10 90 10 76
12 95 20 175 8 82 10 84 200 230 65 50 123 95 129 100 6 6 42 35 80 63 37 29
75 59 83 67 8 8 19 15 25 15 6 0 55 36 109 80 54 44 100 80 103 80 3 0 28 -24
55 -52 28 -29 58 -62 69 -73 26 -27 131 -153 164 -195 14 -19 44 -57 65 -85
55 -71 123 -172 123 -184 0 -5 4 -11 9 -13 5 -1 36 -55 69 -118 118 -224 156
-407 113 -548 -17 -58 -30 -80 -76 -125 -30 -31 -65 -59 -77 -63 -13 -3 -25
-9 -28 -13 -21 -25 -157 -66 -290 -86 -82 -13 -466 -15 -486 -3 -5 3 -36 8
-69 12 -74 8 -109 14 -160 28 -75 21 -72 23 -89 -45 -31 -114 -63 -252 -61
-255 3 -3 16 -5 85 -16 19 -3 46 -8 60 -11 35 -7 85 -13 165 -21 39 -3 81 -8
95 -10 31 -4 362 -4 410 0 84 7 208 28 250 41 10 3 28 8 39 10 45 10 57 14 81
23 14 5 28 10 33 11 11 1 161 83 167 90 3 4 20 18 39 31 19 13 51 42 70 64 20
21 41 44 46 50 46 49 110 193 118 264 2 15 6 32 9 37 7 13 2 232 -6 265 -3 14
-9 39 -12 55 -19 107 -139 388 -201 472 -13 18 -22 33 -19 33 9 0 -109 164
-190 265 -152 190 -454 494 -724 730 -30 27 -57 51 -60 55 -3 3 -14 13 -26 21
-11 8 -42 32 -68 54 -26 22 -57 48 -69 58 -12 10 -82 64 -156 120 -201 153
-189 138 -196 232 -4 44 -8 94 -10 110 -2 17 -7 53 -10 80 -3 28 -7 61 -10 75
-2 14 -7 43 -10 65 -3 22 -10 65 -15 95 -6 30 -13 69 -16 85 -5 32 -33 161
-49 233 -15 68 -21 61 65 77 3 1 14 4 25 7 11 4 38 9 60 13 22 3 47 7 55 10 8
2 26 6 40 9 14 3 50 10 80 16 30 6 69 13 85 16 17 2 41 6 55 9 90 19 465 27
560 13 240 -37 405 -122 467 -241 35 -69 49 -199 29 -282 -19 -85 -30 -121
-37 -129 -5 -6 -9 -17 -9 -26 0 -48 -233 -449 -292 -501 -10 -9 -18 -20 -18
-25 0 -5 -8 -17 -17 -26 -10 -9 -23 -23 -28 -30 -6 -7 -26 -32 -45 -56 l-33
-42 111 -110 111 -110 26 27 c54 58 190 238 268 355 251 376 346 740 261 996
-17 49 -75 160 -103 195 -67 85 -165 164 -270 216 -55 28 -194 76 -249 86 -15
3 -36 7 -47 9 -19 3 -62 9 -165 22 -57 7 -262 6 -360 0 -119 -9 -258 -26 -330
-41 -14 -3 -37 -7 -52 -10 -16 -3 -56 -12 -90 -20 -35 -8 -74 -16 -88 -19 -14
-2 -68 -16 -120 -30 -52 -14 -105 -28 -117 -31 -12 -3 -35 -10 -50 -16 -16 -6
-29 -10 -31 -9 -3 1 -170 -48 -192 -57 -8 -4 -17 -7 -20 -8 -3 -1 -12 -4 -20
-8 -8 -3 -46 -17 -85 -31 -38 -14 -83 -31 -100 -37 -16 -7 -34 -13 -40 -15
-92 -25 -440 -177 -470 -205 -20 -19 -77 -7 -166 35 -177 84 -480 203 -686
270 -57 19 -69 29 -56 49 4 6 9 23 11 36 2 13 10 37 18 53 8 15 12 28 10 28
-3 0 11 44 30 98 20 53 39 108 44 122 4 14 19 51 34 84 14 32 26 65 26 72 0 8
5 14 10 14 6 0 10 6 10 14 0 16 80 172 126 244 19 29 34 56 34 61 0 5 3 11 8
13 4 2 27 30 51 63 185 250 397 338 589 245 78 -39 170 -116 233 -195 24 -31
52 -66 62 -77 9 -12 17 -25 17 -29 0 -4 6 -14 13 -21 6 -8 18 -25 26 -38 28
-48 110 -201 110 -205 1 -3 13 -31 27 -62 26 -59 81 -198 105 -265 7 -21 18
-38 24 -38 8 0 101 27 275 79 18 6 25 14 23 32 -4 69 -191 474 -288 624 -183
285 -387 463 -605 530 -87 27 -248 28 -345 3z m-670 -1878 c11 -5 47 -18 80
-30 65 -24 82 -30 135 -53 19 -8 77 -31 128 -52 50 -21 92 -41 92 -45 0 -6
-156 -95 -305 -174 -11 -6 -22 -13 -25 -16 -8 -9 -268 -170 -274 -170 -2 0 -3
8 -2 18 2 9 7 46 11 82 4 36 9 74 11 85 2 11 7 38 10 60 3 22 7 49 9 60 2 11
6 34 9 50 3 17 10 55 16 85 6 30 13 66 16 80 9 49 11 51 41 39 15 -6 37 -15
48 -19z m1779 -65 c19 -96 22 -107 31 -165 4 -25 9 -54 11 -65 2 -10 6 -37 9
-60 3 -22 8 -56 10 -75 12 -82 15 -110 9 -110 -4 0 -37 20 -75 45 -38 25 -73
45 -78 45 -5 0 -11 4 -13 8 -4 10 -129 86 -145 88 -7 1 -25 11 -40 21 -15 11
-35 23 -43 27 -15 7 -34 18 -82 49 -70 44 -83 52 -88 52 -10 0 -54 35 -49 39
9 9 323 133 354 140 13 3 85 26 105 33 8 3 21 7 28 9 8 1 16 5 20 8 11 12 20
-10 36 -89z m-760 -369 c100 -51 221 -116 270 -145 49 -28 90 -51 92 -51 11 0
484 -297 502 -315 27 -26 32 -866 8 -1190 -2 -27 -17 -40 -161 -133 -88 -57
-170 -108 -182 -115 -12 -7 -72 -42 -135 -78 -155 -91 -210 -122 -298 -166
-41 -21 -77 -40 -80 -43 -3 -3 -50 -27 -105 -54 l-101 -48 -194 100 c-179 91
-408 218 -505 281 -22 14 -42 26 -45 26 -3 0 -47 29 -99 63 -52 34 -98 62
-102 62 -5 0 -9 3 -9 8 0 4 -16 16 -35 26 -60 33 -64 41 -72 176 -8 143 -9
790 0 925 3 50 6 105 6 123 1 31 9 38 131 117 71 47 134 85 139 85 5 0 11 4
13 8 2 4 19 17 38 29 287 169 362 211 560 312 63 33 129 66 145 75 17 9 32 16
34 16 2 0 85 -42 185 -94z m-1580 -1118 c-1 -200 -2 -364 -3 -366 -1 -2 -224
171 -247 193 -6 5 -30 26 -53 45 -23 19 -65 56 -92 81 l-50 45 68 58 c37 32
79 67 93 80 14 12 70 58 125 101 55 44 102 82 105 86 4 4 53 39 55 39 0 0 0
-163 -1 -362z m2896 282 c90 -68 249 -195 314 -252 l39 -34 -89 -75 c-49 -40
-91 -76 -94 -79 -3 -3 -17 -11 -31 -18 -15 -8 -37 -24 -50 -36 -13 -12 -51
-42 -84 -68 -33 -25 -71 -55 -84 -67 -13 -12 -26 -21 -27 -21 -2 0 -4 26 -4
58 0 31 -1 64 -1 72 0 8 0 35 0 60 1 112 1 169 0 178 -1 4 0 12 1 17 1 6 1 30
1 55 -1 25 -2 52 -1 60 0 8 -1 35 -1 60 0 25 0 52 0 60 0 8 1 37 1 64 0 37 3
46 13 39 6 -5 50 -38 97 -73z m-2267 -1437 c9 -3 17 -9 17 -12 0 -4 83 -50
185 -101 102 -51 182 -97 178 -101 -4 -4 -57 -27 -118 -52 -60 -24 -119 -47
-130 -52 -11 -4 -24 -9 -30 -11 -17 -5 -210 -74 -210 -75 0 0 -10 -2 -21 -4
-18 -4 -23 2 -28 33 -9 56 -16 92 -26 147 -13 70 -19 103 -26 155 -3 25 -8 54
-10 65 -4 18 -8 50 -19 132 l-4 32 112 -75 c62 -41 120 -78 130 -81z m1782
110 c-3 -27 -10 -79 -16 -118 -6 -38 -13 -83 -15 -100 -5 -31 -21 -125 -28
-160 -2 -11 -9 -48 -16 -82 -7 -35 -15 -63 -19 -63 -14 0 -217 73 -226 81 -5
5 -18 9 -30 9 -12 0 -25 4 -30 9 -8 7 -101 45 -224 92 -23 9 -24 10 -5 23 10
7 44 26 74 42 30 16 57 31 60 34 10 11 188 102 230 119 14 5 75 43 135 85 61
41 111 76 112 76 1 0 0 -21 -2 -47z"/>
<path d="M3290 3821 c-103 -32 -223 -131 -245 -202 -4 -13 -11 -26 -15 -29
-27 -19 -45 -195 -27 -268 13 -50 57 -132 93 -172 223 -248 627 -151 714 170
18 66 19 117 4 189 -50 237 -295 383 -524 312z"/>
</g>
</svg>
