<?xml version="1.0" standalone="no"?>
<!DOCTYPE svg PUBLIC "-//W3C//DTD SVG 20010904//EN"
 "http://www.w3.org/TR/2001/REC-SVG-20010904/DTD/svg10.dtd">
<svg version="1.0" xmlns="http://www.w3.org/2000/svg"
 width="1252.000000pt" height="1252.000000pt" viewBox="0 0 1252.000000 1252.000000"
 preserveAspectRatio="xMidYMid meet">
<metadata>

</metadata>
<g transform="translate(0.000000,1252.000000) scale(0.100000,-0.100000)"
fill="#000000" stroke="none">
<path d="M420 10464 c0 -14 4 -44 9 -67 6 -23 19 -94 31 -157 25 -131 55 -292
70 -365 11 -56 38 -194 70 -365 12 -63 35 -180 50 -260 15 -80 38 -194 49
-255 12 -60 33 -168 47 -240 15 -71 30 -148 34 -170 8 -41 46 -223 60 -285 4
-19 18 -82 30 -140 12 -58 26 -121 30 -140 4 -19 17 -80 29 -135 11 -55 30
-143 41 -195 12 -52 25 -115 30 -140 5 -25 19 -88 30 -140 22 -100 31 -144 49
-225 5 -27 19 -93 31 -145 11 -52 30 -140 41 -195 12 -55 25 -116 29 -135 9
-38 48 -224 59 -281 11 -52 15 -56 78 -62 53 -6 102 -12 298 -37 39 -5 108
-13 155 -19 47 -6 122 -15 168 -21 45 -5 118 -14 162 -20 44 -6 116 -14 160
-20 44 -6 116 -14 160 -20 44 -5 116 -14 160 -20 44 -5 116 -14 160 -20 44 -5
116 -14 160 -20 44 -5 116 -14 160 -20 44 -5 117 -15 163 -20 45 -6 120 -15
167 -21 47 -6 117 -14 155 -19 82 -10 204 -25 330 -40 101 -12 127 -18 123
-30 -3 -7 -113 -109 -668 -615 -151 -137 -357 -326 -460 -420 -102 -93 -304
-278 -449 -410 -304 -277 -282 -234 -206 -410 48 -112 65 -152 200 -475 42
-102 85 -203 95 -225 10 -22 34 -78 53 -125 33 -79 60 -144 158 -377 149 -353
193 -459 249 -593 28 -69 54 -127 57 -130 2 -3 43 -8 91 -12 48 -3 143 -11
212 -17 195 -17 340 -30 468 -41 149 -13 316 -28 460 -40 61 -6 165 -15 230
-20 255 -22 351 -31 457 -40 61 -6 160 -13 220 -16 l110 -6 14 33 c22 52 60
136 97 217 19 41 34 76 34 78 0 2 14 33 30 69 17 36 30 67 30 69 0 2 18 43 40
90 22 47 40 87 40 90 0 2 17 42 38 88 21 45 191 427 378 847 229 517 341 759
347 750 5 -8 239 -534 522 -1169 l513 -1155 43 -4 c24 -2 100 2 169 8 179 16
317 29 460 41 69 6 172 15 230 20 58 5 159 14 225 20 207 17 473 40 690 59 61
6 173 15 250 21 77 6 150 14 163 18 25 7 22 1 153 317 39 94 79 188 89 210 10
22 53 123 95 225 81 193 126 300 193 460 56 133 107 256 197 470 42 102 87
208 99 235 13 28 33 76 46 108 22 56 22 58 4 78 -11 12 -116 110 -234 218
-391 357 -583 533 -860 786 -738 673 -744 678 -722 686 11 4 60 12 109 18 48
6 125 15 171 21 45 5 118 14 162 20 44 5 116 14 160 20 44 5 116 14 160 20 44
6 116 14 160 20 44 6 116 14 160 20 44 6 117 15 163 20 45 6 120 15 167 21
199 24 239 29 318 39 45 5 118 14 162 20 44 6 116 14 160 20 44 6 116 14 160
20 44 5 116 14 160 20 44 6 117 15 163 20 45 6 106 14 135 17 59 7 67 15 82
90 5 27 19 91 30 143 12 52 26 118 31 145 17 79 27 123 49 225 11 52 30 140
41 195 12 55 25 116 29 135 4 19 18 82 30 140 12 58 26 121 30 140 4 19 17 80
29 135 11 55 30 143 41 195 12 52 25 115 30 140 5 25 19 88 30 140 12 52 25
115 30 140 5 25 19 88 30 140 22 100 76 370 111 555 11 61 34 178 50 260 28
143 38 197 89 465 12 63 35 180 50 260 15 80 38 197 50 260 12 63 25 134 31
157 5 23 9 47 9 52 0 13 -77 14 -151 2 -30 -5 -99 -14 -154 -20 -109 -13 -164
-20 -492 -61 -43 -5 -118 -14 -168 -20 -156 -19 -243 -30 -325 -40 -133 -17
-230 -28 -330 -40 -52 -6 -124 -15 -160 -20 -36 -5 -110 -14 -165 -20 -55 -7
-136 -17 -180 -24 l-80 -13 -1220 -732 -1220 -731 -70 -103 c-39 -56 -95 -138
-126 -182 -56 -80 -215 -310 -559 -810 -102 -148 -255 -370 -340 -492 -84
-123 -158 -223 -164 -223 -6 0 -75 94 -153 208 -136 198 -293 426 -763 1107
-118 171 -243 351 -277 402 l-64 92 -1222 734 -1222 733 -87 12 c-49 7 -127
17 -175 23 -161 19 -242 29 -323 39 -78 10 -154 19 -325 40 -171 21 -247 30
-325 40 -133 17 -230 28 -330 40 -52 6 -124 15 -160 20 -36 5 -110 14 -165 20
-55 6 -127 16 -161 21 -33 5 -79 9 -102 9 -38 0 -42 -2 -42 -26z"/>
</g>
</svg>
